<?xml version="1.0" encoding="utf-8"?>
<!-- Generator: Adobe Illustrator 30.2.1, SVG Export Plug-In . SVG Version: 9.03 Build 0)  -->
<svg version="1.0" id="_레이어_1" xmlns="http://www.w3.org/2000/svg" xmlns:xlink="http://www.w3.org/1999/xlink" x="0px"
	 y="0px" viewBox="0 0 252.3 293.3" enable-background="new 0 0 252.3 293.3" xml:space="preserve">
<g>
	<g>
		<path fill="#FFFFFF" d="M126.2,2.4C57.7,2.4,2.2,57.9,2.2,126.3c0,41.1,20,77.4,50.8,100l58,58c8.8,8.8,23,8.8,31.7,0l63.9-63.9
			c26.6-22.7,43.4-56.5,43.4-94.2C250.1,57.9,194.6,2.4,126.2,2.4z M126.2,228.3c-56.3,0-102-45.7-102-102s45.7-102,102-102
			s102,45.7,102,102S182.5,228.3,126.2,228.3z"/>
	</g>
	<g>
		<path fill="#FFFFFF" d="M79.7,88.1v31.5h22.4V88.1h18.2v81.1h-18.2v-33.3H79.7v33.3H61.5V88.1H79.7z"/>
		<path fill="#FFFFFF" d="M143.6,158.1l-14.5-69.9h19.2L161,153h4.9l12.6-64.9h19.3l-16.8,81.1h-25
			C149,169.2,145.1,165.1,143.6,158.1z"/>
	</g>
</g>
</svg>
