<?xml version="1.0" encoding="UTF-8"?>
<svg id="_레이어_1" xmlns="http://www.w3.org/2000/svg" version="1.1" xmlns:xlink="http://www.w3.org/1999/xlink" viewBox="0 0 397.9 49.1">
  <!-- Generator: Adobe Illustrator 30.2.1, SVG Export Plug-In . SVG Version: 2.1.1 Build 1)  -->
  <defs>
    <style>
      .st0 {
        fill: url(#_무제_그라디언트);
      }

      .st1 {
        fill: url(#_무제_그라디언트_2);
      }
    </style>
    <linearGradient id="_무제_그라디언트" data-name="무제 그라디언트" x1="3.9" y1="34.9" x2="96.9" y2="34.9" gradientTransform="translate(0 52) scale(1 -1)" gradientUnits="userSpaceOnUse">
      <stop offset="0" stop-color="#ffba40" stop-opacity="0"/>
      <stop offset=".4" stop-color="#ffba40" stop-opacity="0"/>
      <stop offset="1" stop-color="#ffba40" stop-opacity=".3"/>
    </linearGradient>
    <linearGradient id="_무제_그라디언트_2" data-name="무제 그라디언트 2" x1="394" y1="34.9" x2="301.1" y2="34.9" gradientTransform="translate(0 52) scale(1 -1)" gradientUnits="userSpaceOnUse">
      <stop offset="0" stop-color="#ffba40" stop-opacity="0"/>
      <stop offset=".4" stop-color="#ffba40" stop-opacity="0"/>
      <stop offset="1" stop-color="#ffba40" stop-opacity=".3"/>
    </linearGradient>
  </defs>
  <path class="st0" d="M3.9,2.3l5.4,30c12.8-4.3,26.2-7.1,39.7-7.9,13.6-.9,27.3.3,40.5,3.6,2.5.6,4.9,1.3,7.3,2l-27.5-22.7C48.1,2.2,25.9,1.3,3.9,2.3Z"/>
  <path class="st1" d="M367.7,2.2c-4.4,0-8.7.5-13.1.9-8.8.9-17.5,2.2-26.1,4.2l-27.4,22.6c28.6-8.6,59.3-7.2,87.5,2.4l5.4-30c-8.8-.4-17.6-.6-26.3-.2h0Z"/>
</svg>