<?xml version="1.0" encoding="UTF-8"?>
<svg id="_레이어_1" data-name="레이어_1" xmlns="http://www.w3.org/2000/svg" version="1.1" xmlns:xlink="http://www.w3.org/1999/xlink" viewBox="0 0 215.5 248.3">
  <!-- Generator: Adobe Illustrator 30.2.1, SVG Export Plug-In . SVG Version: 2.1.1 Build 1)  -->
  <defs>
    <style>
      .st0 {
        fill: #ff4343;
      }

      .st1 {
        fill: url(#_무제_그라디언트_282);
      }
    </style>
    <linearGradient id="_무제_그라디언트_282" data-name="무제 그라디언트 282" x1="142.4" y1="128" x2="211.2" y2="128" gradientUnits="userSpaceOnUse">
      <stop offset="0" stop-color="#ff4343"/>
      <stop offset=".8" stop-color="#ff4343" stop-opacity="0"/>
    </linearGradient>
  </defs>
  <g>
    <g>
      <path class="st0" d="M15.6,62.9l-11.3,9v2.6c0,.8.9,1.2,1.5.8l13.4-8.8-3.6-3.7Z"/>
      <path class="st0" d="M118.2,62.9l11.3,9v2.6c0,.8-.9,1.2-1.5.8l-13.4-8.8,3.6-3.7Z"/>
    </g>
    <path class="st0" d="M104.3,13.5c-6.2-5.9-33.1-9.9-37.4-10.5h0c0,0-.1,0-.3,0-.2,0-.3,0-.3,0h0c-4.3.7-31.2,4.6-37.4,10.6l-16.6,15.9v192.5l16.9,16.2s18.9,7.2,37.1,7.3h0c.1,0,.2,0,.3,0,.1,0,.2,0,.3,0h0c18.2-.2,37.1-7.4,37.1-7.4l16.9-16.2V29.4l-16.6-15.9ZM32,14.7s12.4-6.7,21.2-6.5c0,0,.4,5.2-37.8,22.5l16.6-15.9ZM55.7,221.3c-9.8-.5-24.1-2.5-35.9-9.7l3.1-30.8s24.6,8.4,43.7,8.6c19-.2,43.7-8.6,43.7-8.6l3.1,30.8c-12.4,13.2-49.7,10.5-57.7,9.7ZM113.8,64.6l-8.1,31.5s-15.6-6.9-39.1-7.2c-23.5.3-39.1,7.2-39.1,7.2l-8.1-31.5h-2c16.6-8.6,40.1-10.5,47.9-11h0c0-.1.5,0,1.3,0,.9,0,1.3,0,1.3,0h0c7.9.5,31.3,2.4,47.9,11.1h-2ZM79.9,8.2c8.8-.2,21.2,6.5,21.2,6.5l16.6,15.9c-38.2-17.3-37.8-22.5-37.8-22.5Z"/>
  </g>
  <polygon class="st1" points="210.9 128 211.2 127.6 210.6 127.6 142.4 32.4 142.4 127.6 142.4 128.4 142.4 223.6 210.6 128.4 211.2 128.4 210.9 128"/>
</svg>