<?xml version="1.0" encoding="UTF-8"?>
<svg id="_레이어_1" data-name="레이어_1" xmlns="http://www.w3.org/2000/svg" version="1.1" viewBox="0 0 252.3 252.3">
  <!-- Generator: Adobe Illustrator 30.2.1, SVG Export Plug-In . SVG Version: 2.1.1 Build 1)  -->
  <defs>
    <style>
      .st0 {
        fill: #ff4343;
      }
    </style>
  </defs>
  <polygon class="st0" points="213.6 124.8 213.6 124.8 221.8 134.5 231.9 146.4 231.9 146.4 248.3 146.4 248.3 146.4 232.2 124.8 232.2 124.8 232.2 124.8 241.6 112.4 248.3 103.2 231.9 103.2 213.6 124.8 213.6 124.8"/>
  <polygon class="st0" points="185.5 124.8 185.5 124.8 193.7 134.5 203.8 146.4 203.8 146.4 220.2 146.4 220.2 146.4 204.2 124.8 204.2 124.8 204.2 124.8 213.6 112.4 220.2 103.2 203.8 103.2 185.5 124.8 185.5 124.8"/>
  <g>
    <path class="st0" d="M162,113l-27.2-27.2c-2-2-4.6-3.1-7.4-3.1h-5.9c-2.8,0-5.4,1.1-7.4,3.1l-27.2,27.2c-2,2-3.1,4.6-3.1,7.4v5.9c0,2.8,1.1,5.4,3.1,7.4l27.2,27.2c2,2,4.6,3.1,7.4,3.1h5.9c2.8,0,5.4-1.1,7.4-3.1l27.2-27.2c2-2,3.1-4.6,3.1-7.4v-5.9c0-2.8-1.1-5.4-3.1-7.4ZM156.2,120.7v5.4c0,1.2-.5,2.3-1.3,3.1l-24.7,24.7c-.8.8-2,1.3-3.1,1.3h-5.3c-1.2,0-2.3-.5-3.1-1.3l-24.7-24.7c-.8-.8-1.3-2-1.3-3.1v-5.4c0-1.2.5-2.3,1.3-3.1l24.7-24.7c.8-.8,2-1.3,3.1-1.3h5.3c1.2,0,2.3.5,3.1,1.3l24.7,24.7c.8.8,1.3,2,1.3,3.1Z"/>
    <polygon class="st0" points="120.7 134.3 119.4 134.3 119.4 142.7 120.7 142.7 128.2 142.7 129.5 142.7 129.5 134.3 128.2 134.3 120.7 134.3"/>
    <polygon class="st0" points="120.3 104.1 119 104.1 119.8 129 121.1 129 127.7 129 129.1 129 129.9 104.1 128.6 104.1 120.3 104.1"/>
  </g>
  <g>
    <path class="st0" d="M82.6,170.2c-.2-.2-.4-.4-.5-.6-2.8-2.9-5.4-6-7.6-9.3H13.1v-.3H3.3v10.2h66.2c3.7,4.7,7.9,9,12.6,12.6v66.2h9.8v-71.2c-3.3-2.2-6.4-4.7-9.3-7.5Z"/>
    <path class="st0" d="M239.1,160.3h-61.3c-2.2,3.4-4.8,6.5-7.6,9.3-.2.2-.4.4-.6.6-2.8,2.8-5.9,5.3-9.2,7.5v71.3h9.7v-66.2c4.7-3.7,9-7.9,12.6-12.6h66.2v-10.2h-9.9v.3Z"/>
    <path class="st0" d="M169.7,82c.2.2.4.4.6.6,2.7,2.7,5.1,5.7,7.2,8.8h71.5v-9.4h-66.2c-3.7-4.7-7.9-9-12.6-12.6V3.3h-9.7v71.3c3.3,2.2,6.4,4.7,9.2,7.5Z"/>
    <path class="st0" d="M82,82.6c.2-.2.4-.4.6-.6,2.8-2.8,5.9-5.3,9.2-7.5V3.3h-9.8v66.2c-4.7,3.7-9,7.9-12.6,12.6H3.3v9.4h71.6c2.1-3.2,4.6-6.1,7.2-8.8Z"/>
  </g>
</svg>